# xmcd CD database file
#
# Track frame offsets:
#	150
#	18055
#	33140
#	48430
#	61979
#	80404
#	94422
#	109484
#	126213
#	140607
#
# Disc length: 2085 seconds
#
# Revision: 0
# Processed by: cddbd v1.5.2PL0 Copyright (c) Steve Scherf et al.
# Submitted via: CDex 1.51
#
DISCID=8208230a
DTITLE=Dolly Parton - Dolly Dolly Dolly
DYEAR=2007
DGENRE=Country
TTITLE0=Starting Over Again
TTITLE1=Same Old Fool
TTITLE2=Old Flames Can't Hold A Candle To You
TTITLE3=You're The Only One I Ever Needed
TTITLE4=Say Goodnight
TTITLE5=Fool For Your Love
TTITLE6=Even A Fool Would Let Go
TTITLE7=Sweet Agony
TTITLE8=I Knew You When
TTITLE9=Packin' It Up
EXTD=YEAR: 2007
EXTT0=
EXTT1=
EXTT2=
EXTT3=
EXTT4=
EXTT5=
EXTT6=
EXTT7=
EXTT8=
EXTT9=
PLAYORDER=
